<svg id="Layer_1" data-name="Layer 1" xmlns="http://www.w3.org/2000/svg" viewBox="0 0 5.94 6"><defs><style>.cls-1{fill:#fff;}</style></defs><path class="cls-1" d="M5,2.29c-.15-.16-.3-.3-.45-.45l-.22-.23a.28.28,0,0,1,.39-.39l0,0,1.09,1.1a.28.28,0,0,1,0,.43L4.76,3.9a.28.28,0,0,1-.3.07.25.25,0,0,1-.19-.23.27.27,0,0,1,.1-.24l.57-.58L5,2.85H1.51a.28.28,0,0,1-.11-.54.27.27,0,0,1,.13,0H5Z" transform="translate(-0.03 0)"/><path class="cls-1" d="M3.83,6c0-.27,0-.64,0-1.38,0-1,0-2,0-3a.39.39,0,0,0,0-.15l0,0a1.12,1.12,0,0,0-.26-.08,1.68,1.68,0,0,0-.5,0l-.31,0a.21.21,0,0,0-.15.26.12.12,0,0,0,.06.06.38.38,0,0,0,.1,0A1.26,1.26,0,0,0,3,1.7l.17-.06h0a0,0,0,0,1,0,0,.55.55,0,0,1-.32.14.65.65,0,0,1-.31,0,.13.13,0,0,1-.07-.1v0h0a.38.38,0,0,1-.15,0,.08.08,0,0,1-.08,0,.26.26,0,0,1,0-.15.06.06,0,0,1,0-.05,0,0,0,0,1,0,0,.22.22,0,0,0,0,.09.14.14,0,0,0,.11.1.27.27,0,0,0,.13,0s0,0,0,0a.2.2,0,0,1,0-.09.16.16,0,0,1,.09-.09h.06l.24,0a2.44,2.44,0,0,1,.54,0,1.6,1.6,0,0,1,.29.05.18.18,0,0,1,.09,0s0,0,0,0a.4.4,0,0,0,0-.11A3.15,3.15,0,0,0,3.82.84,1.73,1.73,0,0,0,3.48.13L3.36,0s0,0,0,0L3.25.08A.46.46,0,0,0,3.1.34a.45.45,0,0,0,0,.11,0,0,0,0,1,0,0H3l-.1,0a.19.19,0,0,0-.15,0L2.49.5a.54.54,0,0,1-.22,0A1,1,0,0,1,1.94.34L1.82.23s0,0,0,0a1,1,0,0,0,0,.25.52.52,0,0,0,0,.11.16.16,0,0,0,0,.07,0,0,0,0,1,0,0l-.05,0L1.73.79a.2.2,0,0,0-.08.12h0a.4.4,0,0,0,0,.32.21.21,0,0,0,0,.11s0,0,0,0H1.59l-.4,0a1.23,1.23,0,0,0-.33,0,.39.39,0,0,0-.27.18.17.17,0,0,0,0,.19.21.21,0,0,0,.2.11.67.67,0,0,0,.24,0,.9.9,0,0,1,.43-.05.69.69,0,0,1,.37.13,1.54,1.54,0,0,1,.34.28.24.24,0,0,1,.07.18v.37c0,.59,0,1.18,0,1.77v.65a.88.88,0,0,0,0,.16V6ZM3.18.78A.2.2,0,0,1,3.37,1,.19.19,0,0,1,3,1,.18.18,0,0,1,3.18.78ZM2,.82A.18.18,0,0,1,2.23,1,.2.2,0,0,1,2,1.2.19.19,0,1,1,2,.82Zm.47.94H2.4a2.58,2.58,0,0,1-.29,0,.55.55,0,0,1-.37-.24h0a0,0,0,0,1,0,0h0l0,0,.14.12a.37.37,0,0,0,.23.1l.29,0h.07a0,0,0,0,1,0,0S2.52,1.76,2.51,1.76Z" transform="translate(-0.03 0)"/><path class="cls-1" d="M1,4.06l.45.44.22.23a.28.28,0,0,1,0,.38.27.27,0,0,1-.38,0l0,0L.14,4a.28.28,0,0,1,0-.43L1.24,2.45a.27.27,0,0,1,.3-.08.27.27,0,0,1,.19.23.3.3,0,0,1-.1.25l-.57.57L1,3.5H4.49a.28.28,0,0,1,.29.23A.29.29,0,0,1,4.6,4l-.13,0H1Z" transform="translate(-0.03 0)"/></svg>