<svg id="Layer_1" data-name="Layer 1" xmlns="http://www.w3.org/2000/svg" viewBox="0 0 6.01 6.01"><defs><style>.cls-1{fill:#fff;}</style></defs><path class="cls-1" d="M3,0A3,3,0,0,1,4.27.3l.07,0a.15.15,0,0,1,0,.18.15.15,0,0,1-.17.06L4.06.5A2.65,2.65,0,0,0,3.29.3a3,3,0,0,0-.43,0,2.77,2.77,0,0,0-1,.24,2.55,2.55,0,0,0-.63.39,2.59,2.59,0,0,0-.64.76,2.62,2.62,0,0,0-.32.9,2.27,2.27,0,0,0,0,.58,2.75,2.75,0,0,0,.22.93,2.46,2.46,0,0,0,.42.69,3,3,0,0,0,.72.62,3,3,0,0,0,1,.34,3,3,0,0,0,.52,0,2.69,2.69,0,0,0,1-.22,2.74,2.74,0,0,0,.67-.41,2.92,2.92,0,0,0,.65-.79,2.78,2.78,0,0,0,.3-.88,2.45,2.45,0,0,0,0-.54,2.63,2.63,0,0,0-.24-1,3.72,3.72,0,0,0-.19-.34.12.12,0,0,1,0-.17.13.13,0,0,1,.16,0,.12.12,0,0,1,0,0A2.49,2.49,0,0,1,5.81,2,2.18,2.18,0,0,1,6,2.6a1.84,1.84,0,0,1,0,.33,3,3,0,0,1,0,.67,2.8,2.8,0,0,1-.2.62,3,3,0,0,1-.42.69,2.91,2.91,0,0,1-.43.43,3.43,3.43,0,0,1-.6.39A3,3,0,0,1,3.37,6,2.6,2.6,0,0,1,3,6a3,3,0,0,1-2-.81,3.08,3.08,0,0,1-.66-.89A3.4,3.4,0,0,1,0,3.39c0-.1,0-.2,0-.3A2.87,2.87,0,0,1,.16,2a2.71,2.71,0,0,1,.4-.75A2.52,2.52,0,0,1,.86.9,2.9,2.9,0,0,1,1.78.27,2.73,2.73,0,0,1,2.67,0Z" transform="translate(0.02 -0.01)"/><path class="cls-1" d="M2.32,3.74l0,0a3.7,3.7,0,0,0,.28.28.12.12,0,0,1,0,.14.13.13,0,0,1-.11.1.15.15,0,0,1-.11,0L1.89,3.7a.14.14,0,0,1,0-.19L2.44,3a.13.13,0,0,1,.19,0,.14.14,0,0,1,0,.19l-.28.28,0,0H4a.14.14,0,0,1,.16.18A.14.14,0,0,1,4,3.74H2.32Z" transform="translate(0.02 -0.01)"/><path class="cls-1" d="M3.66,2.55H2a.14.14,0,0,1-.14-.15A.14.14,0,0,1,2,2.27H3.65s0,0,0,0L3.36,2a.12.12,0,0,1,0-.16.14.14,0,0,1,.21-.05l0,0,.51.51a.26.26,0,0,1,0,.09.11.11,0,0,1,0,.12l-.54.55a.14.14,0,0,1-.2-.19l.22-.22Z" transform="translate(0.02 -0.01)"/><path class="cls-1" d="M5.28,3.07a2.26,2.26,0,0,1-.2.88,2.12,2.12,0,0,1-.36.57A2.48,2.48,0,0,1,4.1,5a2.36,2.36,0,0,1-.73.26,2.31,2.31,0,0,1-.37,0A.14.14,0,0,1,3,5l.32,0a2,2,0,0,0,1-.43A2,2,0,0,0,5,3.33c0-.1,0-.21,0-.31a.13.13,0,0,1,.13-.13A.13.13,0,0,1,5.28,3Z" transform="translate(0.02 -0.01)"/><path class="cls-1" d="M2.31.85a.13.13,0,0,1,.13.1.12.12,0,0,1-.07.15l-.22.09a1.88,1.88,0,0,0-.48.31,1.86,1.86,0,0,0-.5.65l-.06.13A.12.12,0,0,1,1,2.36a.13.13,0,0,1-.09-.17A2.26,2.26,0,0,1,1,1.84a2.37,2.37,0,0,1,1-.91l.2-.08S2.3.84,2.31.85Z" transform="translate(0.02 -0.01)"/><path class="cls-1" d="M4.8,1.13V1s0,0,0,0H4.61A.13.13,0,0,1,4.47.88.13.13,0,0,1,4.61.75a.43.43,0,0,1,.16,0s0,0,0,0V.55A.15.15,0,0,1,4.94.41a.13.13,0,0,1,.13.14V.71s0,0,0,0a.43.43,0,0,1,.16,0A.13.13,0,0,1,5.4.88.13.13,0,0,1,5.26,1H5.1s0,0,0,0v.16a.13.13,0,0,1-.13.13.12.12,0,0,1-.13-.1.41.41,0,0,1,0-.11Z" transform="translate(0.02 -0.01)"/></svg>