<svg viewBox="0 0 6 6" fill="none" xmlns="http://www.w3.org/2000/svg">

<path class="st0" d="M6,3c0,1.7-1.3,3-3,3S0,4.7,0,3s1.3-3,3-3S6,1.3,6,3z M3.1,2.2C2.8,2.3,2.2,2.6,1.4,3C1.2,3,1.1,3.1,1.1,3.1
	c0,0.1,0.1,0.1,0.3,0.2l0.1,0c0.2,0,0.4,0.1,0.5,0.1c0.1,0,0.2,0,0.3-0.1c0.8-0.6,1.2-0.8,1.3-0.8c0,0,0,0,0.1,0c0,0,0,0,0,0.1
	c0,0-0.5,0.5-0.7,0.7C2.8,3.3,2.8,3.3,2.8,3.4c0,0,0,0-0.1,0.1c-0.1,0.1-0.2,0.2,0,0.4C2.8,3.9,2.9,4,3,4c0.1,0.1,0.2,0.1,0.4,0.2
	c0,0,0.1,0,0.1,0.1c0.1,0.1,0.2,0.2,0.4,0.2c0.1,0,0.2-0.1,0.2-0.3C4.2,3.7,4.3,2.5,4.4,2c0,0,0-0.1,0-0.1c0,0,0-0.1,0-0.1
	c0,0-0.1,0-0.1,0C4.1,1.8,3.9,1.9,3.1,2.2z"/>
</svg>
